<svg width="26" height="23" viewBox="0 0 26 23" fill="none" xmlns="http://www.w3.org/2000/svg">
<path d="M22.375 3.5625H19.1266L17.5293 1.16719C17.4437 1.03893 17.3278 0.933753 17.1919 0.860983C17.056 0.788213 16.9042 0.750093 16.75 0.75H9.25C9.09581 0.750093 8.94403 0.788213 8.8081 0.860983C8.67216 0.933753 8.55628 1.03893 8.4707 1.16719L6.87227 3.5625H3.625C2.87908 3.5625 2.16371 3.85882 1.63626 4.38626C1.10882 4.91371 0.8125 5.62908 0.8125 6.375V19.5C0.8125 20.2459 1.10882 20.9613 1.63626 21.4887C2.16371 22.0162 2.87908 22.3125 3.625 22.3125H22.375C23.1209 22.3125 23.8363 22.0162 24.3637 21.4887C24.8912 20.9613 25.1875 20.2459 25.1875 19.5V6.375C25.1875 5.62908 24.8912 4.91371 24.3637 4.38626C23.8363 3.85882 23.1209 3.5625 22.375 3.5625ZM17.2188 12.4688C17.2188 13.3031 16.9713 14.1188 16.5078 14.8126C16.0442 15.5063 15.3853 16.0471 14.6144 16.3664C13.8436 16.6857 12.9953 16.7692 12.177 16.6064C11.3586 16.4437 10.6069 16.0419 10.0169 15.4519C9.42689 14.8619 9.02509 14.1101 8.86231 13.2918C8.69953 12.4734 8.78308 11.6252 9.10238 10.8543C9.42169 10.0834 9.96242 9.42455 10.6562 8.96099C11.35 8.49743 12.1656 8.25 13 8.25C14.1189 8.25 15.1919 8.69447 15.9831 9.48564C16.7743 10.2768 17.2188 11.3499 17.2188 12.4688Z" fill="#364960"/>
</svg>
