<svg width="18" height="17" viewBox="0 0 18 17" fill="none" xmlns="http://www.w3.org/2000/svg">
<path d="M1.49998 16.8332C1.28331 16.8332 1.06665 16.7498 0.908315 16.5915C0.683315 16.3665 0.608315 16.0415 0.708315 15.7415L2.18331 11.3082C1.73331 10.2915 1.49998 9.1915 1.49998 8.08317C1.49998 6.6165 1.90831 5.17484 2.68331 3.92484C3.45831 2.67484 4.55831 1.6665 5.87498 1.00817C6.96665 0.458171 8.18331 0.166504 9.39998 0.166504C9.40831 0.166504 9.41665 0.166504 9.41665 0.166504H9.83331C11.825 0.274837 13.65 1.0915 15.0333 2.4665C16.4083 3.8415 17.225 5.67484 17.3333 7.6165V8.07484C17.3333 9.29984 17.05 10.5248 16.4916 11.6165C15.8333 12.9332 14.825 14.0332 13.575 14.8082C12.325 15.5915 10.8916 15.9998 9.41665 15.9998C8.31665 16.0415 7.20831 15.7665 6.19165 15.3165L1.75831 16.7915C1.67498 16.8165 1.59165 16.8332 1.49998 16.8332ZM9.39998 1.83317C8.44165 1.83317 7.48331 2.05817 6.62498 2.4915C5.58331 3.0165 4.71665 3.80817 4.09998 4.79984C3.49165 5.78317 3.16665 6.92484 3.16665 8.08317C3.16665 9.04984 3.39165 10.0165 3.82498 10.8748C3.92498 11.0748 3.94165 11.2998 3.87498 11.5165L2.81665 14.6832L5.98331 13.6248C6.19165 13.5582 6.42498 13.5748 6.62498 13.6748C7.48331 14.1082 8.44165 14.3332 9.39998 14.3332C9.40831 14.3332 9.40831 14.3332 9.41665 14.3332C10.5833 14.3332 11.7166 14.0082 12.7083 13.3998C13.6916 12.7915 14.4916 11.9165 15.0083 10.8748C15.4416 10.0165 15.6666 9.04984 15.6666 8.08317V7.6665C15.5833 6.17484 14.9416 4.73317 13.85 3.64984C12.7666 2.5665 11.3166 1.9165 9.78331 1.83317H9.41665C9.40831 1.83317 9.40831 1.83317 9.39998 1.83317Z" fill="#364960"/>
</svg>
