<svg width="18" height="18" viewBox="0 0 18 18" fill="none" xmlns="http://www.w3.org/2000/svg">
<path d="M1.5 8.58336C1.49713 9.68325 1.75411 10.7683 2.25 11.75C2.83797 12.9265 3.74188 13.916 4.86046 14.6078C5.97904 15.2995 7.26813 15.6662 8.58333 15.6667C9.68322 15.6696 10.7682 15.4126 11.75 14.9167L16.5 16.5L14.9167 11.75C15.4126 10.7683 15.6695 9.68325 15.6667 8.58336C15.6662 7.26815 15.2995 5.97907 14.6077 4.86048C13.916 3.7419 12.9265 2.838 11.75 2.25002C10.7682 1.75413 9.68322 1.49716 8.58333 1.50002H8.16667C6.42971 1.59585 4.78913 2.32899 3.55905 3.55907C2.32897 4.78915 1.59583 6.42973 1.5 8.16669V8.58336Z" stroke="#141414" stroke-width="1.5" stroke-linecap="round" stroke-linejoin="round"/>
</svg>
