<svg width="25" height="25" viewBox="0 0 25 25" fill="none" xmlns="http://www.w3.org/2000/svg">
<path d="M22.465 0.166504H19.035C18.02 0.166504 17.2733 0.586504 16.935 1.33317C16.7483 1.67151 16.6666 2.06817 16.6666 2.53484V5.96484C16.6666 7.44651 17.5533 8.33318 19.035 8.33318H22.465C22.9316 8.33318 23.3283 8.25151 23.6666 8.06484C24.4133 7.72651 24.8333 6.97984 24.8333 5.96484V2.53484C24.8333 1.05317 23.9466 0.166504 22.465 0.166504ZM23.5616 4.75151C23.445 4.86817 23.27 4.94984 23.0833 4.96151H21.4383V5.55651L21.45 6.58318C21.4383 6.78151 21.3683 6.94484 21.2283 7.08484C21.1116 7.20151 20.9366 7.28318 20.75 7.28318C20.365 7.28318 20.05 6.96818 20.05 6.58318V4.94984L18.4166 4.96151C18.0316 4.96151 17.7166 4.63484 17.7166 4.24984C17.7166 3.86484 18.0316 3.54984 18.4166 3.54984L19.4433 3.56151H20.05V1.92817C20.05 1.54317 20.365 1.2165 20.75 1.2165C21.135 1.2165 21.45 1.54317 21.45 1.92817L21.4383 2.75651V3.54984H23.0833C23.4683 3.54984 23.7833 3.86484 23.7833 4.24984C23.7716 4.44817 23.69 4.61151 23.5616 4.75151Z" fill="#364960"/>
<path d="M8.50006 11.11C10.0336 11.11 11.2767 9.86682 11.2767 8.33331C11.2767 6.7998 10.0336 5.55664 8.50006 5.55664C6.96655 5.55664 5.72339 6.7998 5.72339 8.33331C5.72339 9.86682 6.96655 11.11 8.50006 11.11Z" fill="#364960"/>
<path d="M22.4649 8.33301H21.9166V13.7114L21.7649 13.583C20.8549 12.8014 19.3849 12.8014 18.4749 13.583L13.6216 17.748C12.7116 18.5297 11.2416 18.5297 10.3316 17.748L9.93493 17.4214C9.10659 16.698 7.78826 16.628 6.85492 17.258L2.49159 20.1864C2.23492 19.533 2.08325 18.7747 2.08325 17.888V8.11135C2.08325 4.82134 3.82159 3.08301 7.11159 3.08301H16.6666V2.53468C16.6666 2.06801 16.7483 1.67134 16.9349 1.33301H7.11159C2.86492 1.33301 0.333252 3.86468 0.333252 8.11135V17.888C0.333252 19.1597 0.554919 20.268 0.986586 21.2014C1.98992 23.418 4.13659 24.6664 7.11159 24.6664H16.8883C21.1349 24.6664 23.6666 22.1347 23.6666 17.888V8.06468C23.3283 8.25135 22.9316 8.33301 22.4649 8.33301Z" fill="#364960"/>
</svg>
